<?xml version="1.0" encoding="utf-8"?>
<!-- Generator: Adobe Illustrator 23.0.2, SVG Export Plug-In . SVG Version: 6.00 Build 0)  -->
<svg version="1.1" id="Calque_1" xmlns="http://www.w3.org/2000/svg" xmlns:xlink="http://www.w3.org/1999/xlink" x="0px" y="0px"
	 viewBox="0 0 512 512" style="enable-background:new 0 0 512 512;" xml:space="preserve">
<style type="text/css">
	.st0{fill:#DBA93D;}
</style>
<path class="st0" d="M256,0C114.6,0,0,114.6,0,256s114.6,256,256,256s256-114.6,256-256S397.4,0,256,0z M357.6,137.2
	c13.2,0,24,10.8,24,24v0c0,11.4-12.8,22-24,24l0,0h-152v56c0,0,135,0,128,0c25.2-0.5,24,24,24,24h0c0,0-0.2,23.8-24,24l0,0h-128
	v79.5c0,12.7-9.7,23.6-22.3,24.4c-14.1,0.9-25.7-10.1-25.7-23.9v-208c0-13.2,10.8-24,24-24"/>
</svg>
